<svg xmlns="http://www.w3.org/2000/svg" viewBox="0 0 1000 700" font-family="sans-serif">
  <rect width="1000" height="700" fill="#f3f1ea"/>
  <rect x="40" y="40" width="920" height="520" fill="none" stroke="#8a7a5c" stroke-width="4"/>

  <!-- Row 0 -->
  <g fill="#ffffff" stroke="#b8ab8c" stroke-width="2">
    <rect x="40"  y="40" width="176" height="250"/>
    <rect x="226" y="40" width="176" height="250"/>
    <rect x="412" y="40" width="176" height="250"/>
    <rect x="598" y="40" width="176" height="250"/>
    <rect x="784" y="40" width="176" height="250"/>
  </g>
  <g fill="#5c5342" font-size="18" text-anchor="middle">
    <text x="128" y="170">Saletta di</text>
    <text x="128" y="192">Giotto</text>
    <text x="314" y="170">Sala 1</text>
    <text x="500" y="170">Sale</text>
    <text x="500" y="192">10-12</text>
    <text x="686" y="170">Sala 13</text>
    <text x="872" y="170">Sala 15</text>
  </g>

  <!-- Row 1 -->
  <g fill="#ffffff" stroke="#b8ab8c" stroke-width="2">
    <rect x="40"  y="310" width="176" height="250"/>
    <rect x="226" y="310" width="176" height="250"/>
    <rect x="412" y="310" width="176" height="250"/>
    <rect x="598" y="310" width="176" height="250"/>
    <rect x="784" y="310" width="176" height="250"/>
  </g>
  <g fill="#5c5342" font-size="18" text-anchor="middle">
    <text x="128" y="440">Sala 18</text>
    <text x="314" y="440">Sala 23</text>
    <text x="500" y="440">Sala 24</text>
    <text x="686" y="425">Sale del</text>
    <text x="686" y="447">Barocco</text>
    <text x="872" y="440" font-style="italic" fill="#a99">(vuoto)</text>
  </g>

  <!-- Entrance / services strip -->
  <g fill="#ece6d6" stroke="#b8ab8c" stroke-width="2">
    <rect x="40"  y="580" width="145" height="80"/>
    <rect x="195" y="580" width="145" height="80"/>
    <rect x="350" y="580" width="145" height="80"/>
    <rect x="505" y="580" width="145" height="80"/>
    <rect x="660" y="580" width="145" height="80"/>
    <rect x="815" y="580" width="145" height="80"/>
  </g>
  <g fill="#5c5342" font-size="15" text-anchor="middle">
    <text x="112" y="624">Guardaroba</text>
    <text x="267" y="624">Bookshop</text>
    <text x="422" y="624">Toilette</text>
    <text x="577" y="624">Uscita</text>
    <text x="732" y="618">Sala</text>
    <text x="732" y="636">Convegni</text>
    <text x="887" y="618">Sala</text>
    <text x="887" y="636">Lettura</text>
  </g>

  <text x="500" y="26" text-anchor="middle" font-size="20" fill="#8a7a5c">
    Pinacoteca Nazionale di Bologna — Piano Primo (pianta segnaposto)
  </text>
</svg>
